<mxfile host="Electron" modified="2024-06-26T11:30:25.609Z" agent="Mozilla/5.0 (Macintosh; Intel Mac OS X 10_15_7) AppleWebKit/537.36 (KHTML, like Gecko) draw.io/24.4.0 Chrome/120.0.6099.109 Electron/28.1.0 Safari/537.36" etag="JSA2GFN-Ua8buGH9WE6V" version="24.4.0" type="device">
  <diagram id="C5RBs43oDa-KdzZeNtuy" name="Page-1">
    <mxGraphModel dx="1721" dy="2174" grid="1" gridSize="10" guides="1" tooltips="1" connect="1" arrows="1" fold="1" page="1" pageScale="1" pageWidth="900" pageHeight="1600" math="0" shadow="0">
      <root>
        <mxCell id="WIyWlLk6GJQsqaUBKTNV-0" />
        <mxCell id="WIyWlLk6GJQsqaUBKTNV-1" parent="WIyWlLk6GJQsqaUBKTNV-0" />
        <mxCell id="0oKWe1tTrNoSyfwkLrH9-1" value="&lt;font style=&quot;font-size: 30px;&quot;&gt;&lt;i&gt;&lt;b&gt;Data Source&lt;/b&gt;&lt;/i&gt;&lt;/font&gt;" style="text;html=1;strokeColor=none;fillColor=none;align=center;verticalAlign=middle;whiteSpace=wrap;rounded=0;strokeWidth=10;movable=1;resizable=1;rotatable=1;deletable=1;editable=1;locked=0;connectable=1;" parent="WIyWlLk6GJQsqaUBKTNV-1" vertex="1">
          <mxGeometry x="-10" width="200" height="30" as="geometry" />
        </mxCell>
        <mxCell id="0oKWe1tTrNoSyfwkLrH9-2" value="&lt;font style=&quot;font-size: 30px;&quot;&gt;&lt;i&gt;&lt;b&gt;Dataset&lt;/b&gt;&lt;/i&gt;&lt;/font&gt;" style="text;html=1;strokeColor=none;fillColor=none;align=left;verticalAlign=middle;whiteSpace=wrap;rounded=0;strokeWidth=10;movable=1;resizable=1;rotatable=1;deletable=1;editable=1;locked=0;connectable=1;" parent="WIyWlLk6GJQsqaUBKTNV-1" vertex="1">
          <mxGeometry y="680" width="240" height="30" as="geometry" />
        </mxCell>
        <mxCell id="0oKWe1tTrNoSyfwkLrH9-3" value="&lt;font style=&quot;font-size: 30px;&quot;&gt;&lt;i&gt;&lt;b&gt;Clean&amp;amp;Calculate&lt;br&gt;&lt;/b&gt;&lt;/i&gt;&lt;/font&gt;" style="text;html=1;strokeColor=none;fillColor=none;align=left;verticalAlign=middle;whiteSpace=wrap;rounded=0;strokeWidth=10;movable=1;resizable=1;rotatable=1;deletable=1;editable=1;locked=0;connectable=1;" parent="WIyWlLk6GJQsqaUBKTNV-1" vertex="1">
          <mxGeometry y="340" width="200" height="30" as="geometry" />
        </mxCell>
        <mxCell id="Oqe_XEmxXoJDFeqlqnIJ-21" style="edgeStyle=orthogonalEdgeStyle;rounded=0;orthogonalLoop=1;jettySize=auto;html=1;exitX=1;exitY=0.5;exitDx=0;exitDy=0;entryX=0;entryY=0.5;entryDx=0;entryDy=0;movable=1;resizable=1;rotatable=1;deletable=1;editable=1;locked=0;connectable=1;jumpStyle=arc;" parent="WIyWlLk6GJQsqaUBKTNV-1" source="0oKWe1tTrNoSyfwkLrH9-20" target="JrNvIuVscIgdc6tEjQwo-35" edge="1">
          <mxGeometry relative="1" as="geometry">
            <Array as="points">
              <mxPoint x="500" y="385" />
              <mxPoint x="500" y="845" />
            </Array>
          </mxGeometry>
        </mxCell>
        <mxCell id="Oqe_XEmxXoJDFeqlqnIJ-23" style="edgeStyle=orthogonalEdgeStyle;rounded=0;orthogonalLoop=1;jettySize=auto;html=1;exitX=1;exitY=1;exitDx=0;exitDy=0;entryX=0;entryY=0.5;entryDx=0;entryDy=0;movable=1;resizable=1;rotatable=1;deletable=1;editable=1;locked=0;connectable=1;jumpStyle=arc;" parent="WIyWlLk6GJQsqaUBKTNV-1" source="0oKWe1tTrNoSyfwkLrH9-20" target="JrNvIuVscIgdc6tEjQwo-32" edge="1">
          <mxGeometry relative="1" as="geometry" />
        </mxCell>
        <mxCell id="Oqe_XEmxXoJDFeqlqnIJ-24" style="edgeStyle=orthogonalEdgeStyle;rounded=0;orthogonalLoop=1;jettySize=auto;html=1;exitX=1;exitY=0.75;exitDx=0;exitDy=0;entryX=0;entryY=0.5;entryDx=0;entryDy=0;movable=1;resizable=1;rotatable=1;deletable=1;editable=1;locked=0;connectable=1;jumpStyle=arc;" parent="WIyWlLk6GJQsqaUBKTNV-1" source="0oKWe1tTrNoSyfwkLrH9-20" target="JrNvIuVscIgdc6tEjQwo-36" edge="1">
          <mxGeometry relative="1" as="geometry">
            <Array as="points">
              <mxPoint x="470" y="402" />
              <mxPoint x="470" y="785" />
            </Array>
          </mxGeometry>
        </mxCell>
        <mxCell id="0oKWe1tTrNoSyfwkLrH9-20" value="&lt;font style=&quot;font-size: 24px;&quot;&gt;task_ev_interp.py&lt;/font&gt;" style="rounded=1;whiteSpace=wrap;html=1;movable=1;resizable=1;rotatable=1;deletable=1;editable=1;locked=0;connectable=1;" parent="WIyWlLk6GJQsqaUBKTNV-1" vertex="1">
          <mxGeometry x="250" y="350" width="200" height="70" as="geometry" />
        </mxCell>
        <mxCell id="JrNvIuVscIgdc6tEjQwo-38" style="edgeStyle=orthogonalEdgeStyle;rounded=0;orthogonalLoop=1;jettySize=auto;html=1;exitX=0.5;exitY=1;exitDx=0;exitDy=0;entryX=0;entryY=0.5;entryDx=0;entryDy=0;movable=1;resizable=1;rotatable=1;deletable=1;editable=1;locked=0;connectable=1;jumpStyle=arc;" parent="WIyWlLk6GJQsqaUBKTNV-1" source="0oKWe1tTrNoSyfwkLrH9-21" target="Oqe_XEmxXoJDFeqlqnIJ-12" edge="1">
          <mxGeometry relative="1" as="geometry">
            <mxPoint x="660" y="780" as="targetPoint" />
          </mxGeometry>
        </mxCell>
        <mxCell id="0oKWe1tTrNoSyfwkLrH9-21" value="&lt;font style=&quot;font-size: 24px;&quot;&gt;task_ev_merge.py&lt;/font&gt;" style="rounded=1;whiteSpace=wrap;html=1;movable=1;resizable=1;rotatable=1;deletable=1;editable=1;locked=0;connectable=1;" parent="WIyWlLk6GJQsqaUBKTNV-1" vertex="1">
          <mxGeometry x="560" y="350" width="200" height="70" as="geometry" />
        </mxCell>
        <mxCell id="JrNvIuVscIgdc6tEjQwo-0" value="&lt;font style=&quot;font-size: 30px;&quot;&gt;&lt;i&gt;&lt;b&gt;Note&lt;/b&gt;&lt;/i&gt;&lt;/font&gt;" style="text;html=1;strokeColor=none;fillColor=none;align=center;verticalAlign=middle;whiteSpace=wrap;rounded=0;strokeWidth=10;movable=1;resizable=1;rotatable=1;deletable=1;editable=1;locked=0;connectable=1;" parent="WIyWlLk6GJQsqaUBKTNV-1" vertex="1">
          <mxGeometry x="1650" width="150" height="30" as="geometry" />
        </mxCell>
        <mxCell id="JrNvIuVscIgdc6tEjQwo-1" value="" style="endArrow=none;dashed=1;html=1;dashPattern=1 3;strokeWidth=5;rounded=0;movable=1;resizable=1;rotatable=1;deletable=1;editable=1;locked=0;connectable=1;" parent="WIyWlLk6GJQsqaUBKTNV-1" edge="1">
          <mxGeometry width="50" height="50" relative="1" as="geometry">
            <mxPoint x="1500" y="960" as="sourcePoint" />
            <mxPoint x="1500" y="-10" as="targetPoint" />
          </mxGeometry>
        </mxCell>
        <mxCell id="JrNvIuVscIgdc6tEjQwo-7" value="&lt;span style=&quot;font-size: 30px;&quot;&gt;data_raw&lt;/span&gt;" style="swimlane;fontStyle=0;childLayout=stackLayout;horizontal=1;startSize=50;horizontalStack=0;resizeParent=1;resizeParentMax=0;resizeLast=0;collapsible=1;marginBottom=0;whiteSpace=wrap;html=1;fillColor=#d5e8d4;strokeColor=#82b366;rounded=1;align=center;fillStyle=auto;strokeWidth=2;shadow=0;dashed=0;arcSize=4;swimlaneLine=1;movable=1;resizable=1;rotatable=1;deletable=1;editable=1;locked=0;connectable=1;" parent="WIyWlLk6GJQsqaUBKTNV-1" vertex="1">
          <mxGeometry x="302.5" y="20" width="227.5" height="140" as="geometry">
            <mxRectangle x="675" y="30" width="60" height="30" as="alternateBounds" />
          </mxGeometry>
        </mxCell>
        <mxCell id="JrNvIuVscIgdc6tEjQwo-8" value="&lt;font style=&quot;font-size: 22px;&quot;&gt;vehicle_in_use_*.xlsx&lt;/font&gt;" style="text;strokeColor=none;fillColor=none;align=center;verticalAlign=middle;spacingLeft=4;spacingRight=4;overflow=hidden;points=[[0,0.5],[1,0.5]];portConstraint=eastwest;rotatable=1;html=1;whiteSpace=wrap;movable=1;resizable=1;deletable=1;editable=1;locked=0;connectable=1;" parent="JrNvIuVscIgdc6tEjQwo-7" vertex="1">
          <mxGeometry y="50" width="227.5" height="30" as="geometry" />
        </mxCell>
        <mxCell id="Oqe_XEmxXoJDFeqlqnIJ-4" value="&lt;font style=&quot;font-size: 22px;&quot;&gt;IEA Global EV Data 2023.csv&lt;/font&gt;" style="text;strokeColor=none;fillColor=none;align=center;verticalAlign=middle;spacingLeft=4;spacingRight=4;overflow=hidden;points=[[0,0.5],[1,0.5]];portConstraint=eastwest;rotatable=1;html=1;whiteSpace=wrap;dashed=1;movable=1;resizable=1;deletable=1;editable=1;locked=0;connectable=1;" parent="JrNvIuVscIgdc6tEjQwo-7" vertex="1">
          <mxGeometry y="80" width="227.5" height="60" as="geometry" />
        </mxCell>
        <mxCell id="JrNvIuVscIgdc6tEjQwo-17" value="&lt;span style=&quot;font-size: 30px;&quot;&gt;data_man&lt;/span&gt;" style="swimlane;fontStyle=0;childLayout=stackLayout;horizontal=1;startSize=50;horizontalStack=0;resizeParent=1;resizeParentMax=0;resizeLast=0;collapsible=1;marginBottom=0;whiteSpace=wrap;html=1;fillColor=#C4B9F7;strokeColor=#0e8088;rounded=1;align=center;fillStyle=auto;opacity=60;arcSize=4;strokeWidth=2;movable=1;resizable=1;rotatable=1;deletable=1;editable=1;locked=0;connectable=1;" parent="WIyWlLk6GJQsqaUBKTNV-1" vertex="1">
          <mxGeometry x="742.5" y="20" width="267.5" height="200" as="geometry">
            <mxRectangle x="675" y="30" width="60" height="30" as="alternateBounds" />
          </mxGeometry>
        </mxCell>
        <mxCell id="JrNvIuVscIgdc6tEjQwo-18" value="&lt;font style=&quot;font-size: 22px;&quot;&gt;vehicle_in_use*clean.xlsx&lt;/font&gt;" style="text;strokeColor=none;fillColor=none;align=center;verticalAlign=middle;spacingLeft=4;spacingRight=4;overflow=hidden;points=[[0,0.5],[1,0.5]];portConstraint=eastwest;rotatable=1;whiteSpace=wrap;html=1;movable=1;resizable=1;deletable=1;editable=1;locked=0;connectable=1;" parent="JrNvIuVscIgdc6tEjQwo-17" vertex="1">
          <mxGeometry y="50" width="267.5" height="30" as="geometry" />
        </mxCell>
        <mxCell id="JrNvIuVscIgdc6tEjQwo-19" value="&lt;span style=&quot;font-size: 22px;&quot;&gt;EV_penetration_rate.csv&lt;/span&gt;" style="text;strokeColor=none;fillColor=none;align=center;verticalAlign=middle;spacingLeft=4;spacingRight=4;overflow=hidden;points=[[0,0.5],[1,0.5]];portConstraint=eastwest;rotatable=1;whiteSpace=wrap;html=1;movable=1;resizable=1;deletable=1;editable=1;locked=0;connectable=1;" parent="JrNvIuVscIgdc6tEjQwo-17" vertex="1">
          <mxGeometry y="80" width="267.5" height="30" as="geometry" />
        </mxCell>
        <mxCell id="JrNvIuVscIgdc6tEjQwo-20" value="&lt;font style=&quot;font-size: 22px;&quot;&gt;r10_list.csv&lt;/font&gt;" style="text;strokeColor=none;fillColor=none;align=center;verticalAlign=middle;spacingLeft=4;spacingRight=4;overflow=hidden;points=[[0,0.5],[1,0.5]];portConstraint=eastwest;rotatable=1;whiteSpace=wrap;html=1;movable=1;resizable=1;deletable=1;editable=1;locked=0;connectable=1;" parent="JrNvIuVscIgdc6tEjQwo-17" vertex="1">
          <mxGeometry y="110" width="267.5" height="30" as="geometry" />
        </mxCell>
        <mxCell id="Oqe_XEmxXoJDFeqlqnIJ-0" value="vehicle_saturation.csv" style="text;strokeColor=none;fillColor=none;align=center;verticalAlign=middle;spacingLeft=4;spacingRight=4;overflow=hidden;points=[[0,0.5],[1,0.5]];portConstraint=eastwest;rotatable=1;whiteSpace=wrap;html=1;fontSize=22;movable=1;resizable=1;deletable=1;editable=1;locked=0;connectable=1;" parent="JrNvIuVscIgdc6tEjQwo-17" vertex="1">
          <mxGeometry y="140" width="267.5" height="30" as="geometry" />
        </mxCell>
        <mxCell id="Oqe_XEmxXoJDFeqlqnIJ-15" style="edgeStyle=orthogonalEdgeStyle;rounded=0;orthogonalLoop=1;jettySize=auto;html=1;exitX=0;exitY=0.5;exitDx=0;exitDy=0;movable=1;resizable=1;rotatable=1;deletable=1;editable=1;locked=0;connectable=1;" parent="JrNvIuVscIgdc6tEjQwo-17" source="Oqe_XEmxXoJDFeqlqnIJ-1" edge="1">
          <mxGeometry relative="1" as="geometry">
            <mxPoint x="-142.5" y="900" as="targetPoint" />
            <Array as="points">
              <mxPoint x="-222" y="185" />
              <mxPoint x="-222" y="900" />
            </Array>
          </mxGeometry>
        </mxCell>
        <mxCell id="Oqe_XEmxXoJDFeqlqnIJ-1" value="category.csv" style="text;strokeColor=none;fillColor=none;align=center;verticalAlign=middle;spacingLeft=4;spacingRight=4;overflow=hidden;points=[[0,0.5],[1,0.5]];portConstraint=eastwest;rotatable=1;whiteSpace=wrap;html=1;fontSize=22;movable=1;resizable=1;deletable=1;editable=1;locked=0;connectable=1;" parent="JrNvIuVscIgdc6tEjQwo-17" vertex="1">
          <mxGeometry y="170" width="267.5" height="30" as="geometry" />
        </mxCell>
        <mxCell id="JrNvIuVscIgdc6tEjQwo-22" style="edgeStyle=orthogonalEdgeStyle;rounded=0;orthogonalLoop=1;jettySize=auto;html=1;exitX=0;exitY=0.5;exitDx=0;exitDy=0;movable=1;resizable=1;rotatable=1;deletable=1;editable=1;locked=0;connectable=1;" parent="WIyWlLk6GJQsqaUBKTNV-1" source="JrNvIuVscIgdc6tEjQwo-8" edge="1">
          <mxGeometry relative="1" as="geometry">
            <Array as="points">
              <mxPoint x="260" y="85" />
              <mxPoint x="260" y="350" />
            </Array>
            <mxPoint x="260" y="350" as="targetPoint" />
          </mxGeometry>
        </mxCell>
        <mxCell id="JrNvIuVscIgdc6tEjQwo-23" value="&lt;span style=&quot;font-size: 30px;&quot;&gt;data_import&lt;/span&gt;" style="swimlane;fontStyle=0;childLayout=stackLayout;horizontal=1;startSize=50;horizontalStack=0;resizeParent=1;resizeParentMax=0;resizeLast=0;collapsible=1;marginBottom=0;whiteSpace=wrap;html=1;fillColor=#b0e3e6;strokeColor=#0e8088;rounded=1;align=center;fillStyle=auto;strokeWidth=2;shadow=0;dashed=0;arcSize=4;movable=1;resizable=1;rotatable=1;deletable=1;editable=1;locked=0;connectable=1;" parent="WIyWlLk6GJQsqaUBKTNV-1" vertex="1">
          <mxGeometry x="1120" y="20" width="300" height="250" as="geometry">
            <mxRectangle x="675" y="30" width="60" height="30" as="alternateBounds" />
          </mxGeometry>
        </mxCell>
        <mxCell id="Oqe_XEmxXoJDFeqlqnIJ-7" value="&lt;font style=&quot;font-size: 24px;&quot;&gt;&lt;b&gt;&lt;i&gt;dataset-population&lt;/i&gt;&lt;/b&gt;&lt;/font&gt;" style="text;strokeColor=#666666;fillColor=#f5f5f5;align=left;verticalAlign=middle;spacingLeft=4;spacingRight=4;overflow=hidden;points=[[0,0.5],[1,0.5]];portConstraint=eastwest;rotatable=1;whiteSpace=wrap;html=1;fontColor=#333333;movable=1;resizable=1;deletable=1;editable=1;locked=0;connectable=1;" parent="JrNvIuVscIgdc6tEjQwo-23" vertex="1">
          <mxGeometry y="50" width="300" height="40" as="geometry" />
        </mxCell>
        <mxCell id="JrNvIuVscIgdc6tEjQwo-24" value="&lt;span style=&quot;font-size: 22px;&quot;&gt;pop_medium_r10.csv&lt;/span&gt;" style="text;strokeColor=none;fillColor=none;align=center;verticalAlign=middle;spacingLeft=4;spacingRight=4;overflow=hidden;points=[[0,0.5],[1,0.5]];portConstraint=eastwest;rotatable=1;whiteSpace=wrap;html=1;movable=1;resizable=1;deletable=1;editable=1;locked=0;connectable=1;" parent="JrNvIuVscIgdc6tEjQwo-23" vertex="1">
          <mxGeometry y="90" width="300" height="40" as="geometry" />
        </mxCell>
        <mxCell id="JrNvIuVscIgdc6tEjQwo-25" value="&lt;font style=&quot;font-size: 22px;&quot;&gt;gdp_per_cap_r10.csv&lt;/font&gt;" style="text;strokeColor=none;fillColor=none;align=center;verticalAlign=middle;spacingLeft=4;spacingRight=4;overflow=hidden;points=[[0,0.5],[1,0.5]];portConstraint=eastwest;rotatable=1;whiteSpace=wrap;html=1;movable=1;resizable=1;deletable=1;editable=1;locked=0;connectable=1;" parent="JrNvIuVscIgdc6tEjQwo-23" vertex="1">
          <mxGeometry y="130" width="300" height="30" as="geometry" />
        </mxCell>
        <mxCell id="Oqe_XEmxXoJDFeqlqnIJ-8" value="dataset-AR6" style="text;strokeColor=#666666;fillColor=#f5f5f5;align=left;verticalAlign=middle;spacingLeft=4;spacingRight=4;overflow=hidden;points=[[0,0.5],[1,0.5]];portConstraint=eastwest;rotatable=1;whiteSpace=wrap;html=1;fontSize=24;fontStyle=3;fontColor=#333333;movable=1;resizable=1;deletable=1;editable=1;locked=0;connectable=1;" parent="JrNvIuVscIgdc6tEjQwo-23" vertex="1">
          <mxGeometry y="160" width="300" height="30" as="geometry" />
        </mxCell>
        <mxCell id="Oqe_XEmxXoJDFeqlqnIJ-9" value="&lt;font style=&quot;font-size: 22px; font-style: normal; font-weight: normal;&quot;&gt;gdp_per_cap_future.parquet&lt;/font&gt;" style="text;align=center;verticalAlign=middle;spacingLeft=4;spacingRight=4;overflow=hidden;points=[[0,0.5],[1,0.5]];portConstraint=eastwest;rotatable=1;whiteSpace=wrap;html=1;fontSize=24;fontStyle=3;movable=1;resizable=1;deletable=1;editable=1;locked=0;connectable=1;" parent="JrNvIuVscIgdc6tEjQwo-23" vertex="1">
          <mxGeometry y="190" width="300" height="30" as="geometry" />
        </mxCell>
        <mxCell id="jmLWks1fWFFbyw4xq5Q1-0" value="&lt;font style=&quot;font-size: 22px; font-style: normal; font-weight: normal;&quot;&gt;trp_ele_future.parquet&lt;/font&gt;" style="text;align=center;verticalAlign=middle;spacingLeft=4;spacingRight=4;overflow=hidden;points=[[0,0.5],[1,0.5]];portConstraint=eastwest;rotatable=1;whiteSpace=wrap;html=1;fontSize=24;fontStyle=3;movable=1;resizable=1;deletable=1;editable=1;locked=0;connectable=1;" parent="JrNvIuVscIgdc6tEjQwo-23" vertex="1">
          <mxGeometry y="220" width="300" height="30" as="geometry" />
        </mxCell>
        <mxCell id="JrNvIuVscIgdc6tEjQwo-26" value="&lt;span style=&quot;font-size: 30px;&quot;&gt;data_clean&lt;/span&gt;" style="swimlane;fontStyle=0;childLayout=stackLayout;horizontal=1;startSize=50;horizontalStack=0;resizeParent=1;resizeParentMax=0;resizeLast=0;collapsible=1;marginBottom=0;whiteSpace=wrap;html=1;fillColor=#b1ddf0;strokeColor=#10739e;rounded=1;align=center;fillStyle=auto;strokeWidth=2;shadow=0;dashed=0;arcSize=4;opacity=80;movable=1;resizable=1;rotatable=1;deletable=1;editable=1;locked=0;connectable=1;" parent="WIyWlLk6GJQsqaUBKTNV-1" vertex="1">
          <mxGeometry x="1600" y="50" width="187.5" height="80" as="geometry">
            <mxRectangle x="290" y="720" width="60" height="30" as="alternateBounds" />
          </mxGeometry>
        </mxCell>
        <mxCell id="JrNvIuVscIgdc6tEjQwo-31" value="&lt;span style=&quot;font-size: 30px;&quot;&gt;data_task&lt;/span&gt;" style="swimlane;fontStyle=0;childLayout=stackLayout;horizontal=1;startSize=50;horizontalStack=0;resizeParent=1;resizeParentMax=0;resizeLast=0;collapsible=1;marginBottom=0;whiteSpace=wrap;html=1;fillColor=#eee3d3;strokeColor=#808080;rounded=1;align=center;fillStyle=auto;strokeWidth=2;shadow=0;dashed=0;arcSize=4;opacity=80;movable=1;resizable=1;rotatable=1;deletable=1;editable=1;locked=0;connectable=1;" parent="WIyWlLk6GJQsqaUBKTNV-1" vertex="1">
          <mxGeometry x="726.25" y="720" width="353.75" height="230" as="geometry">
            <mxRectangle x="675" y="30" width="60" height="30" as="alternateBounds" />
          </mxGeometry>
        </mxCell>
        <mxCell id="JrNvIuVscIgdc6tEjQwo-36" value="&lt;font style=&quot;font-size: 24px;&quot;&gt;vehicle_in_use_r10.csv&lt;/font&gt;" style="text;align=center;verticalAlign=middle;spacingLeft=4;spacingRight=4;overflow=hidden;points=[[0,0.5],[1,0.5]];portConstraint=eastwest;rotatable=1;whiteSpace=wrap;html=1;movable=1;resizable=1;deletable=1;editable=1;locked=0;connectable=1;" parent="JrNvIuVscIgdc6tEjQwo-31" vertex="1">
          <mxGeometry y="50" width="353.75" height="30" as="geometry" />
        </mxCell>
        <mxCell id="JrNvIuVscIgdc6tEjQwo-32" value="&lt;font style=&quot;font-size: 22px;&quot;&gt;vehicle_per_capita_r10.csv&lt;/font&gt;" style="text;strokeColor=none;fillColor=none;align=center;verticalAlign=middle;spacingLeft=4;spacingRight=4;overflow=hidden;points=[[0,0.5],[1,0.5]];portConstraint=eastwest;rotatable=1;whiteSpace=wrap;html=1;movable=1;resizable=1;deletable=1;editable=1;locked=0;connectable=1;" parent="JrNvIuVscIgdc6tEjQwo-31" vertex="1">
          <mxGeometry y="80" width="353.75" height="30" as="geometry" />
        </mxCell>
        <mxCell id="JrNvIuVscIgdc6tEjQwo-35" value="&lt;span style=&quot;font-size: 22px;&quot;&gt;EV_penetration_rate_interp.csv&lt;/span&gt;" style="text;strokeColor=none;fillColor=none;align=center;verticalAlign=middle;spacingLeft=4;spacingRight=4;overflow=hidden;points=[[0,0.5],[1,0.5]];portConstraint=eastwest;rotatable=1;whiteSpace=wrap;html=1;movable=1;resizable=1;deletable=1;editable=1;locked=0;connectable=1;" parent="JrNvIuVscIgdc6tEjQwo-31" vertex="1">
          <mxGeometry y="110" width="353.75" height="30" as="geometry" />
        </mxCell>
        <mxCell id="Oqe_XEmxXoJDFeqlqnIJ-20" style="edgeStyle=orthogonalEdgeStyle;rounded=0;orthogonalLoop=1;jettySize=auto;html=1;exitX=1;exitY=0.5;exitDx=0;exitDy=0;movable=1;resizable=1;rotatable=1;deletable=1;editable=1;locked=0;connectable=1;" parent="JrNvIuVscIgdc6tEjQwo-31" source="Oqe_XEmxXoJDFeqlqnIJ-12" edge="1">
          <mxGeometry relative="1" as="geometry">
            <mxPoint x="443.75" y="155.25" as="targetPoint" />
          </mxGeometry>
        </mxCell>
        <mxCell id="Oqe_XEmxXoJDFeqlqnIJ-12" value="gdp_vehicle.parquet" style="text;strokeColor=none;fillColor=none;align=center;verticalAlign=middle;spacingLeft=4;spacingRight=4;overflow=hidden;points=[[0,0.5],[1,0.5]];portConstraint=eastwest;rotatable=1;whiteSpace=wrap;html=1;fontSize=22;movable=1;resizable=1;deletable=1;editable=1;locked=0;connectable=1;" parent="JrNvIuVscIgdc6tEjQwo-31" vertex="1">
          <mxGeometry y="140" width="353.75" height="30" as="geometry" />
        </mxCell>
        <mxCell id="Oqe_XEmxXoJDFeqlqnIJ-14" style="edgeStyle=orthogonalEdgeStyle;rounded=0;orthogonalLoop=1;jettySize=auto;html=1;exitX=0;exitY=0.5;exitDx=0;exitDy=0;entryX=0;entryY=0.5;entryDx=0;entryDy=0;movable=1;resizable=1;rotatable=1;deletable=1;editable=1;locked=0;connectable=1;" parent="JrNvIuVscIgdc6tEjQwo-31" source="Oqe_XEmxXoJDFeqlqnIJ-11" target="Oqe_XEmxXoJDFeqlqnIJ-10" edge="1">
          <mxGeometry relative="1" as="geometry">
            <mxPoint x="-126.25" y="220" as="targetPoint" />
            <Array as="points">
              <mxPoint x="-126" y="185" />
              <mxPoint x="-126" y="215" />
            </Array>
          </mxGeometry>
        </mxCell>
        <mxCell id="Oqe_XEmxXoJDFeqlqnIJ-27" value="Duckdb Join" style="edgeLabel;html=1;align=center;verticalAlign=middle;resizable=1;points=[];movable=1;rotatable=1;deletable=1;editable=1;locked=0;connectable=1;" parent="Oqe_XEmxXoJDFeqlqnIJ-14" vertex="1" connectable="0">
          <mxGeometry x="-0.2958" relative="1" as="geometry">
            <mxPoint x="13" as="offset" />
          </mxGeometry>
        </mxCell>
        <mxCell id="Oqe_XEmxXoJDFeqlqnIJ-11" value="gdp_vehicle_fitting.parquet" style="text;strokeColor=none;fillColor=none;align=center;verticalAlign=middle;spacingLeft=4;spacingRight=4;overflow=hidden;points=[[0,0.5],[1,0.5]];portConstraint=eastwest;rotatable=1;whiteSpace=wrap;html=1;fontSize=22;movable=1;resizable=1;deletable=1;editable=1;locked=0;connectable=1;" parent="JrNvIuVscIgdc6tEjQwo-31" vertex="1">
          <mxGeometry y="170" width="353.75" height="30" as="geometry" />
        </mxCell>
        <mxCell id="Oqe_XEmxXoJDFeqlqnIJ-10" value="task_ev.duckdb" style="text;strokeColor=none;fillColor=none;align=center;verticalAlign=middle;spacingLeft=4;spacingRight=4;overflow=hidden;points=[[0,0.5],[1,0.5]];portConstraint=eastwest;rotatable=1;whiteSpace=wrap;html=1;fontSize=22;movable=1;resizable=1;deletable=1;editable=1;locked=0;connectable=1;" parent="JrNvIuVscIgdc6tEjQwo-31" vertex="1">
          <mxGeometry y="200" width="353.75" height="30" as="geometry" />
        </mxCell>
        <mxCell id="JrNvIuVscIgdc6tEjQwo-37" style="edgeStyle=orthogonalEdgeStyle;rounded=0;orthogonalLoop=1;jettySize=auto;html=1;exitX=1;exitY=0.5;exitDx=0;exitDy=0;entryX=0;entryY=0.5;entryDx=0;entryDy=0;" parent="WIyWlLk6GJQsqaUBKTNV-1" target="JrNvIuVscIgdc6tEjQwo-36" edge="1">
          <mxGeometry relative="1" as="geometry" />
        </mxCell>
        <mxCell id="Oqe_XEmxXoJDFeqlqnIJ-2" style="edgeStyle=orthogonalEdgeStyle;rounded=0;orthogonalLoop=1;jettySize=auto;html=1;exitX=1;exitY=0.5;exitDx=0;exitDy=0;entryX=0;entryY=0.5;entryDx=0;entryDy=0;movable=1;resizable=1;rotatable=1;deletable=1;editable=1;locked=0;connectable=1;" parent="WIyWlLk6GJQsqaUBKTNV-1" source="JrNvIuVscIgdc6tEjQwo-8" target="JrNvIuVscIgdc6tEjQwo-18" edge="1">
          <mxGeometry relative="1" as="geometry" />
        </mxCell>
        <mxCell id="Oqe_XEmxXoJDFeqlqnIJ-3" value="clean&amp;amp;r10_ar6" style="edgeLabel;html=1;align=center;verticalAlign=middle;resizable=1;points=[];movable=1;rotatable=1;deletable=1;editable=1;locked=0;connectable=1;" parent="Oqe_XEmxXoJDFeqlqnIJ-2" vertex="1" connectable="0">
          <mxGeometry x="-0.1603" y="-1" relative="1" as="geometry">
            <mxPoint as="offset" />
          </mxGeometry>
        </mxCell>
        <mxCell id="Oqe_XEmxXoJDFeqlqnIJ-5" style="edgeStyle=orthogonalEdgeStyle;rounded=0;orthogonalLoop=1;jettySize=auto;html=1;exitX=1;exitY=0.5;exitDx=0;exitDy=0;entryX=0;entryY=0.5;entryDx=0;entryDy=0;movable=1;resizable=1;rotatable=1;deletable=1;editable=1;locked=0;connectable=1;" parent="WIyWlLk6GJQsqaUBKTNV-1" source="Oqe_XEmxXoJDFeqlqnIJ-4" target="JrNvIuVscIgdc6tEjQwo-19" edge="1">
          <mxGeometry relative="1" as="geometry" />
        </mxCell>
        <mxCell id="Oqe_XEmxXoJDFeqlqnIJ-18" style="edgeStyle=orthogonalEdgeStyle;rounded=0;orthogonalLoop=1;jettySize=auto;html=1;exitX=1;exitY=0.5;exitDx=0;exitDy=0;entryX=1;entryY=0.5;entryDx=0;entryDy=0;movable=1;resizable=1;rotatable=1;deletable=1;editable=1;locked=0;connectable=1;" parent="WIyWlLk6GJQsqaUBKTNV-1" source="Oqe_XEmxXoJDFeqlqnIJ-6" target="Oqe_XEmxXoJDFeqlqnIJ-11" edge="1">
          <mxGeometry relative="1" as="geometry">
            <Array as="points">
              <mxPoint x="1170" y="385" />
              <mxPoint x="1170" y="905" />
            </Array>
          </mxGeometry>
        </mxCell>
        <mxCell id="Oqe_XEmxXoJDFeqlqnIJ-6" value="&lt;font style=&quot;font-size: 24px;&quot;&gt;task_ev_fit.py&lt;/font&gt;" style="rounded=1;whiteSpace=wrap;html=1;movable=1;resizable=1;rotatable=1;deletable=1;editable=1;locked=0;connectable=1;" parent="WIyWlLk6GJQsqaUBKTNV-1" vertex="1">
          <mxGeometry x="820" y="350" width="200" height="70" as="geometry" />
        </mxCell>
        <mxCell id="Oqe_XEmxXoJDFeqlqnIJ-26" style="edgeStyle=orthogonalEdgeStyle;rounded=0;orthogonalLoop=1;jettySize=auto;html=1;exitX=1;exitY=0.5;exitDx=0;exitDy=0;entryX=0.75;entryY=0;entryDx=0;entryDy=0;movable=1;resizable=1;rotatable=1;deletable=1;editable=1;locked=0;connectable=1;" parent="WIyWlLk6GJQsqaUBKTNV-1" source="JrNvIuVscIgdc6tEjQwo-20" target="Oqe_XEmxXoJDFeqlqnIJ-6" edge="1">
          <mxGeometry relative="1" as="geometry">
            <Array as="points">
              <mxPoint x="1030" y="145" />
              <mxPoint x="1030" y="300" />
              <mxPoint x="970" y="300" />
            </Array>
          </mxGeometry>
        </mxCell>
        <mxCell id="Oqe_XEmxXoJDFeqlqnIJ-22" style="edgeStyle=orthogonalEdgeStyle;rounded=0;orthogonalLoop=1;jettySize=auto;html=1;exitX=1;exitY=0.5;exitDx=0;exitDy=0;jumpStyle=arc;movable=1;resizable=1;rotatable=1;deletable=1;editable=1;locked=0;connectable=1;" parent="WIyWlLk6GJQsqaUBKTNV-1" source="JrNvIuVscIgdc6tEjQwo-19" edge="1">
          <mxGeometry relative="1" as="geometry">
            <mxPoint x="310" y="350" as="targetPoint" />
            <Array as="points">
              <mxPoint x="1040" y="115" />
              <mxPoint x="1040" y="260" />
              <mxPoint x="310" y="260" />
              <mxPoint x="310" y="350" />
            </Array>
          </mxGeometry>
        </mxCell>
        <mxCell id="Oqe_XEmxXoJDFeqlqnIJ-28" style="edgeStyle=orthogonalEdgeStyle;rounded=0;orthogonalLoop=1;jettySize=auto;html=1;exitX=1;exitY=0.5;exitDx=0;exitDy=0;entryX=0.5;entryY=0;entryDx=0;entryDy=0;jumpStyle=arc;movable=1;resizable=1;rotatable=1;deletable=1;editable=1;locked=0;connectable=1;" parent="WIyWlLk6GJQsqaUBKTNV-1" source="JrNvIuVscIgdc6tEjQwo-18" target="0oKWe1tTrNoSyfwkLrH9-20" edge="1">
          <mxGeometry relative="1" as="geometry">
            <Array as="points">
              <mxPoint x="1050" y="85" />
              <mxPoint x="1050" y="270" />
              <mxPoint x="350" y="270" />
            </Array>
          </mxGeometry>
        </mxCell>
        <mxCell id="Oqe_XEmxXoJDFeqlqnIJ-17" style="edgeStyle=orthogonalEdgeStyle;rounded=0;orthogonalLoop=1;jettySize=auto;html=1;exitX=0;exitY=0.5;exitDx=0;exitDy=0;entryX=0.5;entryY=0;entryDx=0;entryDy=0;jumpStyle=arc;movable=1;resizable=1;rotatable=1;deletable=1;editable=1;locked=0;connectable=1;" parent="WIyWlLk6GJQsqaUBKTNV-1" source="Oqe_XEmxXoJDFeqlqnIJ-9" target="0oKWe1tTrNoSyfwkLrH9-21" edge="1">
          <mxGeometry relative="1" as="geometry">
            <mxPoint x="660" y="620" as="targetPoint" />
            <Array as="points">
              <mxPoint x="1110" y="225" />
              <mxPoint x="1110" y="310" />
              <mxPoint x="660" y="310" />
            </Array>
          </mxGeometry>
        </mxCell>
        <mxCell id="Oqe_XEmxXoJDFeqlqnIJ-29" style="edgeStyle=orthogonalEdgeStyle;rounded=0;orthogonalLoop=1;jettySize=auto;html=1;exitX=-0.007;exitY=-0.033;exitDx=0;exitDy=0;jumpStyle=arc;exitPerimeter=0;movable=1;resizable=1;rotatable=1;deletable=1;editable=1;locked=0;connectable=1;" parent="WIyWlLk6GJQsqaUBKTNV-1" source="JrNvIuVscIgdc6tEjQwo-25" edge="1">
          <mxGeometry relative="1" as="geometry">
            <mxPoint x="390" y="350" as="targetPoint" />
            <Array as="points">
              <mxPoint x="1090" y="149" />
              <mxPoint x="1090" y="290" />
              <mxPoint x="390" y="290" />
              <mxPoint x="390" y="350" />
            </Array>
          </mxGeometry>
        </mxCell>
        <mxCell id="Oqe_XEmxXoJDFeqlqnIJ-31" value="&lt;span style=&quot;font-size: 40px; text-wrap: nowrap;&quot;&gt;Dataset-EV&lt;/span&gt;" style="shape=cylinder3;whiteSpace=wrap;html=1;boundedLbl=1;backgroundOutline=1;size=15;fillColor=#ffcc99;strokeColor=#36393d;strokeWidth=2;perimeterSpacing=0;shadow=0;movable=1;resizable=1;rotatable=1;deletable=1;editable=1;locked=0;connectable=1;" parent="WIyWlLk6GJQsqaUBKTNV-1" vertex="1">
          <mxGeometry x="16.5" y="-120" width="207" height="100" as="geometry" />
        </mxCell>
        <mxCell id="cvPjdZyrduM-aTKh2-W7-0" style="edgeStyle=orthogonalEdgeStyle;rounded=0;orthogonalLoop=1;jettySize=auto;html=1;exitX=1;exitY=0.5;exitDx=0;exitDy=0;entryX=0.25;entryY=0;entryDx=0;entryDy=0;" parent="WIyWlLk6GJQsqaUBKTNV-1" source="JrNvIuVscIgdc6tEjQwo-35" target="Oqe_XEmxXoJDFeqlqnIJ-6" edge="1">
          <mxGeometry relative="1" as="geometry" />
        </mxCell>
        <mxCell id="8UoTTBBK5KDxMUcoQvmS-0" style="edgeStyle=orthogonalEdgeStyle;rounded=0;orthogonalLoop=1;jettySize=auto;html=1;exitX=0;exitY=0.5;exitDx=0;exitDy=0;entryX=0.25;entryY=0;entryDx=0;entryDy=0;" parent="WIyWlLk6GJQsqaUBKTNV-1" source="Oqe_XEmxXoJDFeqlqnIJ-0" target="0oKWe1tTrNoSyfwkLrH9-21" edge="1">
          <mxGeometry relative="1" as="geometry" />
        </mxCell>
        <mxCell id="4gcsuZmWSk2ioVqz6WLu-2" style="edgeStyle=orthogonalEdgeStyle;rounded=0;orthogonalLoop=1;jettySize=auto;html=1;exitX=0.5;exitY=1;exitDx=0;exitDy=0;entryX=1;entryY=0.5;entryDx=0;entryDy=0;jumpStyle=arc;" parent="WIyWlLk6GJQsqaUBKTNV-1" source="4gcsuZmWSk2ioVqz6WLu-0" target="Oqe_XEmxXoJDFeqlqnIJ-0" edge="1">
          <mxGeometry relative="1" as="geometry">
            <Array as="points">
              <mxPoint x="903" y="-30" />
              <mxPoint x="1020" y="-30" />
              <mxPoint x="1020" y="175" />
            </Array>
          </mxGeometry>
        </mxCell>
        <mxCell id="LNOdViwI2m3bplV9kq7J-0" value="median by category" style="edgeLabel;html=1;align=center;verticalAlign=middle;resizable=0;points=[];" vertex="1" connectable="0" parent="4gcsuZmWSk2ioVqz6WLu-2">
          <mxGeometry x="-0.4903" y="-1" relative="1" as="geometry">
            <mxPoint as="offset" />
          </mxGeometry>
        </mxCell>
        <mxCell id="4gcsuZmWSk2ioVqz6WLu-0" value="&lt;font style=&quot;font-size: 24px;&quot;&gt;task_ev_saturation.py&lt;/font&gt;" style="rounded=1;whiteSpace=wrap;html=1;movable=1;resizable=1;rotatable=1;deletable=1;editable=1;locked=0;connectable=1;" parent="WIyWlLk6GJQsqaUBKTNV-1" vertex="1">
          <mxGeometry x="773.13" y="-160" width="260" height="70" as="geometry" />
        </mxCell>
        <mxCell id="4gcsuZmWSk2ioVqz6WLu-1" style="edgeStyle=orthogonalEdgeStyle;rounded=0;orthogonalLoop=1;jettySize=auto;html=1;exitX=0;exitY=0.5;exitDx=0;exitDy=0;entryX=1;entryY=0.5;entryDx=0;entryDy=0;" parent="WIyWlLk6GJQsqaUBKTNV-1" source="jmLWks1fWFFbyw4xq5Q1-0" target="4gcsuZmWSk2ioVqz6WLu-0" edge="1">
          <mxGeometry relative="1" as="geometry" />
        </mxCell>
      </root>
    </mxGraphModel>
  </diagram>
</mxfile>
